<svg id="b6dbed31-4808-422d-9469-243f325161d8" data-name="Layer 11" xmlns="http://www.w3.org/2000/svg" xmlns:xlink="http://www.w3.org/1999/xlink" viewBox="0 0 1147.82 1146.96">
  <defs>
    <clipPath id="a2ae7873-92f4-478c-94df-5dbb71d0392c">
      <circle cx="500" cy="500" r="500" fill="none"/>
    </clipPath>
  </defs>
  <g id="f6caf239-24b1-48c1-a9b8-608dadf06322" data-name="back copy">
    <circle id="ffab2342-dabd-4ca7-b3ef-2df546b082ca" data-name="background" cx="500" cy="500" r="500" fill="#66c1ff"/>
  </g>
  <g id="eab7c79a-0053-4904-8224-7f61680eadfa" data-name="shadows copy">
    <g clip-path="url(#a2ae7873-92f4-478c-94df-5dbb71d0392c)">
      <path id="b4d067c0-8307-43e3-8d17-bcea1875dc2b" data-name="shadow" d="M710,1147,255.21,735a6.92,6.92,0,0,1-2.27-5l-4.32-300.64L225,385l11-112,516-90,395.82,521.18Z" fill="#42718e"/>
    </g>
  </g>
  <g id="af0b49f0-5a32-4f41-ab31-a57b331f808c" data-name="movieShadow">
    <g>
      <path d="M323,409.39h-87.7a21.75,21.75,0,0,1-21.75-21.76V285.85a21.75,21.75,0,0,1,21.75-21.75h34.18a21.75,21.75,0,0,1,16.15,7.17l53.51,59.26a21.75,21.75,0,0,1,5.61,14.58v42.52A21.75,21.75,0,0,1,323,409.39Z" fill="#365d70"/>
      <path d="M242.74,339.82H746.21a4.51,4.51,0,0,1,4.51,4.51v60.55a4.51,4.51,0,0,1-4.51,4.51H242.74a4.51,4.51,0,0,1-4.51-4.51V344.33A4.51,4.51,0,0,1,242.74,339.82Zm402.69,58.12H692.5a4.47,4.47,0,0,0,3.18-1.32l32.38-32.37a4.51,4.51,0,0,0-3.19-7.7H674.36a4.48,4.48,0,0,0-3.35,1.51l-28.94,32.37A4.51,4.51,0,0,0,645.43,397.94Zm-106,0h47.06a4.49,4.49,0,0,0,3.19-1.32l32.37-32.37a4.51,4.51,0,0,0-3.18-7.7H568.4a4.51,4.51,0,0,0-3.36,1.51l-28.93,32.37A4.51,4.51,0,0,0,539.47,397.94Zm-104.84,0h47.06a4.47,4.47,0,0,0,3.18-1.32l32.38-32.37a4.51,4.51,0,0,0-3.19-7.7h-50.5a4.48,4.48,0,0,0-3.36,1.51l-28.93,32.37A4.5,4.5,0,0,0,434.63,397.94Zm-96-3h47.06a4.47,4.47,0,0,0,3.18-1.32l32.38-32.37a4.51,4.51,0,0,0-3.19-7.7h-50.5a4.48,4.48,0,0,0-3.36,1.51l-28.93,32.37A4.5,4.5,0,0,0,338.63,394.94Z" fill="#365d70"/>
      <path d="M239.16,278.46l498.63-87.92a3.08,3.08,0,0,1,3.57,2.5l11,62.43a3.09,3.09,0,0,1-2.5,3.57L251.24,347a3.08,3.08,0,0,1-3.57-2.5l-11-62.43A3.09,3.09,0,0,1,239.16,278.46ZM644.1,265.07l50.06-8.83a3.09,3.09,0,0,0,2-1.27l28.57-40.79a3.09,3.09,0,0,0-3.06-4.81l-53.75,9.48a3.1,3.1,0,0,0-2.09,1.41L641,260.41A3.08,3.08,0,0,0,644.1,265.07ZM533.16,282.16l50.06-8.83a3.09,3.09,0,0,0,2-1.27l28.56-40.8a3.08,3.08,0,0,0-3.06-4.8L557,235.93a3.1,3.1,0,0,0-2.09,1.42L530,277.49A3.09,3.09,0,0,0,533.16,282.16ZM421.35,302.4l50-8.83a3,3,0,0,0,2-1.27L502,251.51a3.08,3.08,0,0,0-3.06-4.81l-53.75,9.48a3.05,3.05,0,0,0-2.08,1.41l-24.88,40.15A3.09,3.09,0,0,0,421.35,302.4Zm-103,18,50-8.83a3,3,0,0,0,2-1.27L399,269.51a3.08,3.08,0,0,0-3.06-4.81l-53.75,9.48a3.05,3.05,0,0,0-2.08,1.41l-24.88,40.15A3.09,3.09,0,0,0,318.35,320.4Z" fill="#365d70"/>
      <path d="M721.2,748H255.43a17.2,17.2,0,0,1-17.2-17.2V426.31a8.32,8.32,0,0,1,8.32-8.31H730.08a8.31,8.31,0,0,1,8.31,8.31V730.8A17.2,17.2,0,0,1,721.2,748ZM709,445H264a5,5,0,0,0-5,5h0a5,5,0,0,0,5,5H709a5,5,0,0,0,5-5h0A5,5,0,0,0,709,445Zm0,212H264a5,5,0,0,0-5,5h0a5,5,0,0,0,5,5h65.78a5,5,0,0,1,5,5l.2,50a5,5,0,0,0,5,5h2a5,5,0,0,0,5-5V672a5,5,0,0,1,5-5H625a5,5,0,0,1,5,5v50a5,5,0,0,0,5,5h2a5,5,0,0,0,5-5V672a5,5,0,0,1,5-5h62a5,5,0,0,0,5-5h0A5,5,0,0,0,709,657ZM489,470h0a87,87,0,0,0-87,87h0a87,87,0,0,0,87,87h0a87,87,0,0,0,87-87h0A87,87,0,0,0,489,470Z" fill="#365d70"/>
      <path d="M538,565.35l-70.62,40.77a9.46,9.46,0,0,1-14.19-8.19V516.39a9.46,9.46,0,0,1,14.19-8.2L538,549A9.47,9.47,0,0,1,538,565.35Z" fill="#365d70"/>
    </g>
  </g>
  <g id="ec546a39-876b-4cc7-ba5d-8a4bae88a156" data-name="movie">
    <path d="M333,399.39h-87.7a21.75,21.75,0,0,1-21.75-21.76V275.85a21.75,21.75,0,0,1,21.75-21.75h34.18a21.75,21.75,0,0,1,16.15,7.17l53.51,59.26a21.75,21.75,0,0,1,5.61,14.58v42.52A21.75,21.75,0,0,1,333,399.39Z" fill="#fff"/>
    <path d="M252.74,329.82H756.21a4.51,4.51,0,0,1,4.51,4.51v60.55a4.51,4.51,0,0,1-4.51,4.51H252.74a4.51,4.51,0,0,1-4.51-4.51V334.33A4.51,4.51,0,0,1,252.74,329.82Zm402.69,58.12H702.5a4.47,4.47,0,0,0,3.18-1.32l32.38-32.37a4.51,4.51,0,0,0-3.19-7.7H684.36a4.48,4.48,0,0,0-3.35,1.51l-28.94,32.37A4.51,4.51,0,0,0,655.43,387.94Zm-106,0h47.06a4.49,4.49,0,0,0,3.19-1.32l32.37-32.37a4.51,4.51,0,0,0-3.18-7.7H578.4a4.51,4.51,0,0,0-3.36,1.51l-28.93,32.37A4.51,4.51,0,0,0,549.47,387.94Zm-104.84,0h47.06a4.47,4.47,0,0,0,3.18-1.32l32.38-32.37a4.51,4.51,0,0,0-3.19-7.7h-50.5a4.48,4.48,0,0,0-3.36,1.51l-28.93,32.37A4.5,4.5,0,0,0,444.63,387.94Zm-96-3h47.06a4.47,4.47,0,0,0,3.18-1.32l32.38-32.37a4.51,4.51,0,0,0-3.19-7.7h-50.5a4.48,4.48,0,0,0-3.36,1.51l-28.93,32.37A4.5,4.5,0,0,0,348.63,384.94Z" fill="#fff"/>
    <path d="M249.16,268.46l498.63-87.92a3.08,3.08,0,0,1,3.57,2.5l11,62.43a3.09,3.09,0,0,1-2.5,3.57L261.24,337a3.08,3.08,0,0,1-3.57-2.5l-11-62.43A3.09,3.09,0,0,1,249.16,268.46ZM654.1,255.07l50.06-8.83a3.09,3.09,0,0,0,2-1.27l28.57-40.79a3.09,3.09,0,0,0-3.06-4.81l-53.75,9.48a3.1,3.1,0,0,0-2.09,1.41L651,250.41A3.08,3.08,0,0,0,654.1,255.07ZM543.16,272.16l50.06-8.83a3.09,3.09,0,0,0,2-1.27l28.56-40.8a3.08,3.08,0,0,0-3.06-4.8L567,225.93a3.1,3.1,0,0,0-2.09,1.42L540,267.49A3.09,3.09,0,0,0,543.16,272.16ZM431.35,292.4l50-8.83a3,3,0,0,0,2-1.27L512,241.51a3.08,3.08,0,0,0-3.06-4.81l-53.75,9.48a3.05,3.05,0,0,0-2.08,1.41l-24.88,40.15A3.09,3.09,0,0,0,431.35,292.4Zm-103,18,50-8.83a3,3,0,0,0,2-1.27L409,259.51a3.08,3.08,0,0,0-3.06-4.81l-53.75,9.48a3.05,3.05,0,0,0-2.08,1.41l-24.88,40.15A3.09,3.09,0,0,0,328.35,310.4Z" fill="#fff"/>
    <path d="M731.2,738H265.43a17.2,17.2,0,0,1-17.2-17.2V416.31a8.32,8.32,0,0,1,8.32-8.31H740.08a8.31,8.31,0,0,1,8.31,8.31V720.8A17.2,17.2,0,0,1,731.2,738ZM719,435H274a5,5,0,0,0-5,5h0a5,5,0,0,0,5,5H719a5,5,0,0,0,5-5h0A5,5,0,0,0,719,435Zm0,212H274a5,5,0,0,0-5,5h0a5,5,0,0,0,5,5h65.78a5,5,0,0,1,5,5l.2,50a5,5,0,0,0,5,5h2a5,5,0,0,0,5-5V662a5,5,0,0,1,5-5H635a5,5,0,0,1,5,5v50a5,5,0,0,0,5,5h2a5,5,0,0,0,5-5V662a5,5,0,0,1,5-5h62a5,5,0,0,0,5-5h0A5,5,0,0,0,719,647ZM499,460h0a87,87,0,0,0-87,87h0a87,87,0,0,0,87,87h0a87,87,0,0,0,87-87h0A87,87,0,0,0,499,460Z" fill="#fff"/>
    <path d="M548,555.35l-70.62,40.77a9.46,9.46,0,0,1-14.19-8.19V506.39a9.46,9.46,0,0,1,14.19-8.2L548,539A9.47,9.47,0,0,1,548,555.35Z" fill="#fff"/>
  </g>
</svg>
