<svg id="a870edc5-7dd8-43ee-972f-540c9560e8c8" data-name="MUSIC" xmlns="http://www.w3.org/2000/svg" xmlns:xlink="http://www.w3.org/1999/xlink" viewBox="0 0 1147.82 1146.96">
  <defs>
    <clipPath id="ef9023b3-69d2-4807-bde7-86c0feda391d">
      <circle cx="500" cy="500" r="500" fill="none"/>
    </clipPath>
  </defs>
  <g id="a75c008c-aafb-41b5-9b98-0dd0c39d14a9" data-name="back">
    <circle id="f131b7ff-d751-4696-9b1c-e0f31aab95f9" data-name="background" cx="500" cy="500" r="500" fill="#c366ff"/>
  </g>
  <g id="b008fdaa-6b27-4058-8d3d-99ca27aa642a" data-name="shadows copy 2">
    <g clip-path="url(#ef9023b3-69d2-4807-bde7-86c0feda391d)">
      <polygon id="b5f8e8ae-99ea-4fad-8b80-71c580dde596" data-name="shadow" points="710.04 1146.96 202 729 296 604 302 247 712 176 1147.82 704.18 710.04 1146.96" fill="#7a428c"/>
    </g>
  </g>
  <g id="b7ee12eb-7018-4da7-870e-285901c9c5cb" data-name="noteShadow">
    <path d="M247.32,767.59a94.5,94.5,0,0,0,95.85-94.48V378.53a14.23,14.23,0,0,1,11.92-14l275.05-45.31a14.23,14.23,0,0,1,16.54,14V528.91a4.54,4.54,0,0,1-5.95,4.31,94.11,94.11,0,0,0-33.51-4.51c-49.83,2.25-89.63,43.52-90.14,93.4a94.49,94.49,0,1,0,189,1V206a14.23,14.23,0,0,0-16.13-14.11l-43.25,5.83-303.51,50-47.75,8.84a14.24,14.24,0,0,0-11.64,14V578.34a5,5,0,0,1-6.48,4.71,94.5,94.5,0,0,0-123.12,91.4C154.89,725.35,196.43,766.88,247.32,767.59Z" fill="#5a3468"/>
  </g>
  <g id="a01d7e91-8c63-41d0-b243-9327e9ae02af" data-name="note">
    <path d="M257.32,747.59a94.5,94.5,0,0,0,95.85-94.48V358.53a14.23,14.23,0,0,1,11.92-14l275.05-45.31a14.23,14.23,0,0,1,16.54,14V508.91a4.54,4.54,0,0,1-5.95,4.31,94.11,94.11,0,0,0-33.51-4.51c-49.83,2.25-89.63,43.52-90.14,93.4a94.49,94.49,0,1,0,189,1V186a14.23,14.23,0,0,0-16.13-14.11l-43.25,5.83-303.51,50-47.75,8.84a14.24,14.24,0,0,0-11.64,14V558.34a5,5,0,0,1-6.48,4.71,94.5,94.5,0,0,0-123.12,91.4C164.89,705.35,206.43,746.88,257.32,747.59Z" fill="#fff"/>
  </g>
</svg>
