<svg id="b6b72349-4b57-4e78-a587-d630ee131afc" data-name="TV" xmlns="http://www.w3.org/2000/svg" xmlns:xlink="http://www.w3.org/1999/xlink" viewBox="0 0 1211.82 1116.96">
  <defs>
    <clipPath id="f77f1196-0592-4bba-90b0-a3b2833dd851">
      <circle cx="500" cy="500" r="500" fill="none"/>
    </clipPath>
  </defs>
  <g id="af172278-7a58-4cb3-8309-3ba6529d4cd2" data-name="back">
    <circle id="e2795199-947c-44e2-9145-ac378e212350" data-name="background" cx="500" cy="500" r="500" fill="#fec057"/>
  </g>
  <g id="a515a1ab-6b18-47bd-a857-1e6d9adc54f3" data-name="shadows">
    <g clip-path="url(#f77f1196-0592-4bba-90b0-a3b2833dd851)">
      <polygon id="e2a00f9a-72b7-43b1-a855-fae26b40c69b" data-name="shadow" points="670.04 1116.96 187.71 654.62 208 259 813 239 1211.82 778.18 670.04 1116.96" fill="#be9041"/>
    </g>
  </g>
  <g id="b50ab2ec-8077-4603-a851-72b7927301a3" data-name="tvShadow">
    <path d="M516.36,708.64h78.19a5.25,5.25,0,0,1,4.05,1.9l10.68,32.81a5.27,5.27,0,0,1-4,8.65H370.77a5.27,5.27,0,0,1-4-8.65l10.68-32.81a5.25,5.25,0,0,1,4.05-1.9h78.19V675.28H194.49a26.87,26.87,0,0,1-26.87-26.87V270.87A26.87,26.87,0,0,1,194.49,244h587a26.87,26.87,0,0,1,26.87,26.87V648.41a26.87,26.87,0,0,1-26.87,26.87H516.36ZM235.79,621.9H740.21A14.79,14.79,0,0,0,755,607.11V311.34a14,14,0,0,0-14-14H235.79a14.8,14.8,0,0,0-14.8,14.8V607.11A14.79,14.79,0,0,0,235.79,621.9Z" fill="#9b7023"/>
    <path d="M538.38,465.89,472,504.2a8.88,8.88,0,0,1-13.33-7.7V419.88a8.88,8.88,0,0,1,13.33-7.7l66.36,38.31A8.89,8.89,0,0,1,538.38,465.89Z" fill="#9b723d"/>
    <path d="M490,556.5A98.5,98.5,0,1,1,588.5,458,98.62,98.62,0,0,1,490,556.5Zm0-176A77.5,77.5,0,1,0,567.5,458,77.59,77.59,0,0,0,490,380.5Z" fill="#8e6836"/>
  </g>
  <g id="aabc7be6-0c4f-4a25-85d8-e554aa047869" data-name="tv">
    <path d="M528.36,695.64h78.19a5.25,5.25,0,0,1,4.05,1.9l10.68,32.81a5.27,5.27,0,0,1-4,8.65H382.77a5.27,5.27,0,0,1-4-8.65l10.68-32.81a5.25,5.25,0,0,1,4.05-1.9h78.19V662.28H206.49a26.87,26.87,0,0,1-26.87-26.87V257.87A26.87,26.87,0,0,1,206.49,231h587a26.87,26.87,0,0,1,26.87,26.87V635.41a26.87,26.87,0,0,1-26.87,26.87H528.36ZM247.79,608.9H752.21A14.79,14.79,0,0,0,767,594.11V298.34a14,14,0,0,0-14-14H247.79a14.8,14.8,0,0,0-14.8,14.8V594.11A14.79,14.79,0,0,0,247.79,608.9Z" fill="#fff"/>
    <path d="M546.38,454.89,480,493.2a8.88,8.88,0,0,1-13.33-7.7V408.88a8.88,8.88,0,0,1,13.33-7.7l66.36,38.31A8.89,8.89,0,0,1,546.38,454.89Z" fill="#fff"/>
    <path d="M498,545a98,98,0,1,1,98-98A98.11,98.11,0,0,1,498,545Zm0-176a78,78,0,1,0,78,78A78.09,78.09,0,0,0,498,369Z" fill="#fff"/>
  </g>
</svg>
