<svg xmlns="http://www.w3.org/2000/svg" viewBox="0 0 461.04 486.58">
  <g id="b600b069-4c6a-4ff3-b81b-aed02a5f5bb7" data-name="Layer 1">
    <circle cx="230.52" cy="247.59" r="230.52" fill="#0cf"/>
    <path d="M86,334.6H50.44L86,205.77H57.22L113.4,11H448.82L414.87,91.09H195.13l-8.94,33.72H294.57L260.94,204.9l-88.46-.82-28.81,93.23h35.59L53.83,488.84Z" transform="translate(-19.93 -2.26)" fill="#f2f2f2"/>
    <path d="M199.91,353.68l123.58,83.25a6.18,6.18,0,0,0,9.62-5.17l-.38-45.37c86.46-14.5,140.26-51,142.84-121.86l-.31-1.49a5.76,5.76,0,0,0-10.53-1.88l-.63,1c-24.15,37.58-53.57,49.25-131.37,50.54l-.05-48.22a6.18,6.18,0,0,0-9.62-5.11L199.91,342.19A6.92,6.92,0,0,0,199.91,353.68Z" transform="translate(-19.93 -2.26)" fill="#f2f2f2"/>
  </g>
  <g id="f5fc90bf-9cda-4aea-a5b2-3e8ca819888a" data-name="Layer 1 copy">
    <circle cx="230.52" cy="247.59" r="230.52" fill="#0cf"/>
    <g id="bba41854-88ac-4e17-9543-f1d6bf74769e" data-name="Layer 3">
      <path d="M78.5,325.85H42.91L78.5,197H49.69L105.86,2.26H441.28L407.33,82.35H187.59l-8.94,33.72H287l-33.62,80.09L165,195.34l-28.82,93.22h35.6L46.3,480.1Z" transform="translate(-19.93 -2.26)" fill="#999"/>
      <path d="M191.37,346.93,315,430.18a6.17,6.17,0,0,0,9.62-5.17l-.38-45.37c86.46-14.5,140.26-51,142.85-121.85l-.31-1.5a5.77,5.77,0,0,0-10.54-1.87l-.62,1C431.41,293,402,304.68,324.19,306l-.05-48.21a6.17,6.17,0,0,0-9.62-5.11l-123.15,82.8A6.92,6.92,0,0,0,191.37,346.93Z" transform="translate(-19.93 -2.26)" fill="#999"/>
    </g>
    <path d="M86,334.6H50.44L86,205.77H57.22L113.4,11H448.82L414.87,91.09H195.13l-8.94,33.72H294.57L260.94,204.9l-88.46-.82-28.81,93.23h35.59L53.83,488.84Z" transform="translate(-19.93 -2.26)" fill="#fff"/>
    <path d="M199.91,353.68l123.58,83.25a6.18,6.18,0,0,0,9.62-5.17l-.38-45.37c86.46-14.5,140.26-51,142.84-121.86l-.31-1.49a5.76,5.76,0,0,0-10.53-1.88l-.63,1c-24.15,37.58-53.57,49.25-131.37,50.54l-.05-48.22a6.18,6.18,0,0,0-9.62-5.11L199.91,342.19A6.92,6.92,0,0,0,199.91,353.68Z" transform="translate(-19.93 -2.26)" fill="#fff"/>
  </g>
</svg>
