<svg id="b7dca990-2e27-42d2-b18e-2af8dc7c8a09" data-name="Layer 1 copy" xmlns="http://www.w3.org/2000/svg" viewBox="0 0 977 323.15">
  <circle cx="490.4" cy="146.04" r="146.04" fill="#00cde8"/>
  <g>
    <path d="M31.74,316.88H10.34L36.49,237H19.17L50.57,131.8H240.39l-15.67,41H92.59l-7.75,25H150l-17.85,31.53L79,228.9,61.64,292.08H83.05L10,407.26Z" transform="translate(-10 -104.03)" fill="#333"/>
    <g>
      <path d="M174.26,199.83c0-7.38,5.18-12.56,12.56-12.56a12.17,12.17,0,0,1,12.39,12.56v55.7c0,11.14,3.93,19.46,16.95,19.46,9.1,0,12.4-6.91,19.77-6.91,6.59,0,10.51,4.55,10.51,11.14,0,15.38-19.61,19.93-32.95,19.93-26,0-39.23-18-39.23-43.62Z" transform="translate(-10 -104.03)" fill="#333"/>
      <path d="M308.89,296.17c-9.73,0-15.69-4.08-15.69-12.55,0-8.63,6.28-12.56,15.69-12.56h15.69c-3.6-15.53-14.27-43-21.81-51.78-8.47,11.77-19.3,38.45-24.63,60.73-2.67,11.3-5.49,17.41-14.28,17.41-9.26,0-12.71-5.8-12.71-12.55,0-8.94,5-25.42,12.08-42.68,8.47-20.71,23.07-54.92,39.39-54.92s30.91,34,39.22,54.92c6.91,17.1,11.93,32.95,11.93,42.21,0,7.06-3,11.77-12.55,11.77Z" transform="translate(-10 -104.03)" fill="#333"/>
      <path d="M397.7,299.31c-14.28,0-40-4.71-40-22.28a11.21,11.21,0,0,1,11.61-11.62c8,0,17.73,9.73,31.07,9.73,7.06,0,16-3.13,16-11.61,0-10.51-15.22-10.83-23.22-12.24-19.46-3.14-34.2-11.14-34.2-33.58,0-24.79,21.49-32,41.89-32,13,0,38.13,3.46,38.13,20.72,0,6.9-3.92,12.39-11.14,12.39-8.16,0-13.18-10.2-29.81-10.2-6.75,0-15.38,2.83-15.38,11,0,11,16.16,11.14,25.58,12.71,7.68,1.41,16.94,4.23,23.22,9.72,5.8,5,8.63,13,8.63,21.5C440.07,291,417.79,299.31,397.7,299.31Z" transform="translate(-10 -104.03)" fill="#333"/>
      <path d="M511.62,254.12H475.53V285c0,8.31-5.81,12.55-12.87,12.55-6.75,0-12.39-4.24-12.39-12.55V199.67c0-7.85,5.64-12.4,12.39-12.4,7.06,0,12.87,4.55,12.87,12.4v30.75h36.09V199.67c0-7.85,5.65-12.4,12.39-12.4,6.91,0,12.71,4.55,12.71,12.4V285c0,8.31-5.8,12.55-12.71,12.55-6.74,0-12.39-4.24-12.39-12.55Z" transform="translate(-10 -104.03)" fill="#333"/>
    </g>
    <g>
      <path d="M746.29,296.17c-9.73,0-15.69-4.08-15.69-12.55,0-8.63,6.28-12.56,15.69-12.56H762c-3.61-15.53-14.28-43-21.81-51.78-8.47,11.77-19.3,38.45-24.63,60.73-2.67,11.3-5.5,17.41-14.28,17.41-9.26,0-12.71-5.8-12.71-12.55,0-8.94,5-25.42,12.08-42.68,8.47-20.71,23.07-54.92,39.38-54.92s30.92,34,39.23,54.92c6.91,17.1,11.93,32.95,11.93,42.21,0,7.06-3,11.77-12.55,11.77Z" transform="translate(-10 -104.03)" fill="#333"/>
      <path d="M845.46,299.31c-34.21,0-54-24.95-54-57.28,0-30.59,20.08-56.33,54-56.33,22.44,0,40.79,10.2,40.79,23.7,0,7.53-3.76,13-12.08,13-9.88,0-12.24-10.36-27.93-10.36-17.41,0-28.87,13.66-28.87,29.82,0,18,11.77,31.22,29,31.22,16.63,0,20.08-9.41,29.18-9.41,7.54,0,11.62,5.18,11.62,12.55C887.2,289.89,869.15,299.31,845.46,299.31Z" transform="translate(-10 -104.03)" fill="#333"/>
      <path d="M896.3,199.67c0-7.38,5.33-12.4,12.55-12.4s12.71,5.18,12.71,12.4V285c0,7.37-5.34,12.55-12.71,12.55s-12.55-5-12.55-12.55Z" transform="translate(-10 -104.03)" fill="#333"/>
    </g>
    <path d="M563.26,177.4c0-26.31,18-34.65,56-34.65,28.66,0,56.89,8.77,56.89,41.49,0,16.69-8.13,29.52-25.88,33.58,18,3.64,28.45,17.33,28.45,35.72,0,34.44-28.66,44.07-62.67,44.07s-52.83-9-52.83-34.23Zm50.26,52.4c-6.2,0-10.27-3.42-10.27-11.33s4.5-10.27,10.27-10.27h13.69c12.62,0,23.1-3,23.1-18.4,0-15.82-13.69-21-30.16-21-21.81,0-29.09,4.71-29.09,17.76v65.88c0,13.68,11.55,18.18,29.09,18.18,15.83,0,31.23-4.71,31.23-22.25,0-15.83-12.19-18.61-24.81-18.61Z" transform="translate(-10 -104.03)" fill="#333"/>
    <path d="M932.34,381.11c43.83-24.55,53.38-63.3,50.06-98.29v-.11c-1-17.22-15.42-35.54-31.18-41,15.7-5,28.41-24.95,28.41-41.42,0-7.54-5-13-12.71-13-10.83,0-11.46,8.48-12.71,15.22-2,11.46-7.38,21.5-17.58,27-5.65,3-10.67,6.12-10.67,11.93,0,5.49,4.55,8.94,10.51,12.39,11,6.44,17.89,17.58,20.56,29.35.32,1.54.64,3,1,4.39l0,.19c4.11,15.29,2.46,30.82-4.35,47.07l-.55.73c-12,16.06-27.86,21.25-65,21.86l0-24.94a3.2,3.2,0,0,0-5-2.64l-63.68,42.82a3.59,3.59,0,0,0,0,5.95l63.91,43.05a3.2,3.2,0,0,0,5-2.67l-.2-23.47c17.42-2.92,32.27-7.56,44-14.31Z" transform="translate(-10 -104.03)" fill="#333"/>
    <text x="-10" y="-104.03"/>  </g>
  <g>
    <path d="M35.74,321.88H14.34L40.49,242H23.17L54.57,136.8H244.39l-15.67,41H96.59l-7.75,25H154l-17.85,31.53L83,233.9,65.64,297.08H87.05L14,412.26Z" transform="translate(-10 -104.03)" fill="#fff"/>
    <g>
      <path d="M178.26,204.83c0-7.38,5.18-12.56,12.56-12.56a12.17,12.17,0,0,1,12.39,12.56v55.7c0,11.14,3.93,19.46,16.95,19.46,9.1,0,12.4-6.91,19.77-6.91,6.59,0,10.51,4.55,10.51,11.14,0,15.38-19.61,19.93-32.95,19.93-26,0-39.23-18-39.23-43.62Z" transform="translate(-10 -104.03)" fill="#fff"/>
      <path d="M312.89,301.17c-9.73,0-15.69-4.08-15.69-12.55,0-8.63,6.28-12.56,15.69-12.56h15.69c-3.6-15.53-14.27-43-21.81-51.78-8.47,11.77-19.3,38.45-24.63,60.73-2.67,11.3-5.49,17.41-14.28,17.41-9.26,0-12.71-5.8-12.71-12.55,0-8.94,5-25.42,12.08-42.68,8.47-20.71,23.07-54.92,39.39-54.92s30.91,34,39.22,54.92c6.91,17.1,11.93,32.95,11.93,42.21,0,7.06-3,11.77-12.55,11.77Z" transform="translate(-10 -104.03)" fill="#fff"/>
      <path d="M401.7,304.31c-14.28,0-40-4.71-40-22.28a11.21,11.21,0,0,1,11.61-11.62c8,0,17.73,9.73,31.07,9.73,7.06,0,16-3.13,16-11.61,0-10.51-15.22-10.83-23.22-12.24-19.46-3.14-34.2-11.14-34.2-33.58,0-24.79,21.49-32,41.89-32,13,0,38.13,3.46,38.13,20.72,0,6.9-3.92,12.39-11.14,12.39-8.16,0-13.18-10.2-29.81-10.2-6.75,0-15.38,2.83-15.38,11,0,11,16.16,11.14,25.58,12.71,7.68,1.41,16.94,4.23,23.22,9.72,5.8,5,8.63,13,8.63,21.5C444.07,296,421.79,304.31,401.7,304.31Z" transform="translate(-10 -104.03)" fill="#fff"/>
      <path d="M515.62,259.12H479.53V290c0,8.31-5.81,12.55-12.87,12.55-6.75,0-12.39-4.24-12.39-12.55V204.67c0-7.85,5.64-12.4,12.39-12.4,7.06,0,12.87,4.55,12.87,12.4v30.75h36.09V204.67c0-7.85,5.65-12.4,12.39-12.4,6.91,0,12.71,4.55,12.71,12.4V290c0,8.31-5.8,12.55-12.71,12.55-6.74,0-12.39-4.24-12.39-12.55Z" transform="translate(-10 -104.03)" fill="#fff"/>
    </g>
    <g>
      <path d="M750.29,301.17c-9.73,0-15.69-4.08-15.69-12.55,0-8.63,6.28-12.56,15.69-12.56H766c-3.61-15.53-14.28-43-21.81-51.78-8.47,11.77-19.3,38.45-24.63,60.73-2.67,11.3-5.5,17.41-14.28,17.41-9.26,0-12.71-5.8-12.71-12.55,0-8.94,5-25.42,12.08-42.68,8.47-20.71,23.07-54.92,39.38-54.92s30.92,34,39.23,54.92c6.91,17.1,11.93,32.95,11.93,42.21,0,7.06-3,11.77-12.55,11.77Z" transform="translate(-10 -104.03)" fill="#fff"/>
      <path d="M849.46,304.31c-34.21,0-54-24.95-54-57.28,0-30.59,20.08-56.33,54-56.33,22.44,0,40.79,10.2,40.79,23.7,0,7.53-3.76,13-12.08,13-9.88,0-12.24-10.36-27.93-10.36-17.41,0-28.87,13.66-28.87,29.82,0,18,11.77,31.22,29,31.22,16.63,0,20.08-9.41,29.18-9.41,7.54,0,11.62,5.18,11.62,12.55C891.2,294.89,873.15,304.31,849.46,304.31Z" transform="translate(-10 -104.03)" fill="#fff"/>
      <path d="M900.3,204.67c0-7.38,5.33-12.4,12.55-12.4s12.71,5.18,12.71,12.4V290c0,7.37-5.34,12.55-12.71,12.55s-12.55-5-12.55-12.55Z" transform="translate(-10 -104.03)" fill="#fff"/>
    </g>
    <path d="M567.26,182.4c0-26.31,18-34.65,56-34.65,28.66,0,56.89,8.77,56.89,41.49,0,16.69-8.13,29.52-25.88,33.58,18,3.64,28.45,17.33,28.45,35.72,0,34.44-28.66,44.07-62.67,44.07s-52.83-9-52.83-34.23Zm50.26,52.4c-6.2,0-10.27-3.42-10.27-11.33s4.5-10.27,10.27-10.27h13.69c12.62,0,23.1-3,23.1-18.4,0-15.82-13.69-21-30.16-21-21.81,0-29.09,4.71-29.09,17.76v65.88c0,13.68,11.55,18.18,29.09,18.18,15.83,0,31.23-4.71,31.23-22.25,0-15.83-12.19-18.61-24.81-18.61Z" transform="translate(-10 -104.03)" fill="#fff"/>
    <path d="M936.34,386.11c43.83-24.55,53.38-63.3,50.06-98.29v-.11c-1-17.22-15.42-35.54-31.18-41,15.7-5,28.41-24.95,28.41-41.42,0-7.54-5-13-12.71-13-10.83,0-11.46,8.48-12.71,15.22-2,11.46-7.38,21.5-17.58,27-5.65,3-10.67,6.12-10.67,11.93,0,5.49,4.55,8.94,10.51,12.39,11,6.44,17.89,17.58,20.56,29.35.32,1.54.64,3,1,4.39l0,.19c4.11,15.29,2.46,30.82-4.35,47.07l-.55.73c-12,16.06-27.86,21.25-65,21.86l0-24.94a3.2,3.2,0,0,0-5-2.64l-63.68,42.82a3.59,3.59,0,0,0,0,5.95l63.91,43.05a3.2,3.2,0,0,0,5-2.67l-.2-23.47c17.42-2.92,32.27-7.56,44-14.31Z" transform="translate(-10 -104.03)" fill="#fff"/>
    <text x="-10" y="-104.03"/>  </g>
</svg>
