<svg id="fc658159-0df8-4127-8d8e-0563c6b6d4be" data-name="svg2985" xmlns="http://www.w3.org/2000/svg" viewBox="0 0 998.85 311.56">
  <g id="e2604da8-37b6-40f8-9e3e-ec255f3702d2" data-name="g3015">
    <g id="a4646649-62d8-4808-ae4e-4e66e0b48fed" data-name="g3021">
      <path id="e5c83290-9e1e-46e5-bdfe-b0b32909fc06" data-name="path3023" d="M157.84,102.49c0-28.72-22.67-51.4-50.64-51.4H82.26v102H107.2a50.63,50.63,0,0,0,50.64-50.63M272,305.79h-92.2l-73.31-102H82.26V305H.64V-.3H117c67.26,0,122.43,46.1,122.43,102,0,34-21.16,65-52.9,83.89L272,305.79" transform="translate(-0.64 0.3)" fill="#6c3c97"/>
    </g>
    <g id="a27c4038-699e-454e-9432-d84192bd1d95" data-name="g3025">
      <path id="ff50bed8-5ce7-4e2c-a85b-93c69cd7b7ba" data-name="path3027" d="M364.15,120.8c-21.16,0-40.06,29.47-40.06,65.75s18.14,65.75,40.06,65.75,40.06-29.47,40.06-65.75-18.14-65.75-40.06-65.75m125.46,65.75c0,68.78-55.93,124.71-125.46,124.71a124.71,124.71,0,0,1,0-249.41c68.78,0,125.46,55.17,125.46,124.7" transform="translate(-0.64 0.3)" fill="#6c3c97"/>
    </g>
    <g id="b1937bcf-16cf-47ec-b88c-e9d1197425d8" data-name="g3029">
      <path id="ef4a5ae2-3761-479d-a4a6-8a98a53c0e8c" data-name="path3031" d="M680.54,66.82l-93.71,93.72V66.82H505.2V305.65h81.63V208.91l98.25,96.74H787.87L662.4,181,766,78.16V220.25c0,46.86,28,90.69,99.76,90.69,34,0,65-18.89,80.11-36.27l36.28,31.74h17.39V66.82H917.86V221.76c-9.07,15.87-21.92,25.7-41.57,25.7s-29.47-12.1-29.47-49.88V66.82Z" transform="translate(-0.64 0.3)" fill="#6c3c97"/>
    </g>
  </g>
</svg>
